<svg width="24" height="24" viewBox="0 0 24 24" fill="none"
    xmlns="http://www.w3.org/2000/svg">
    <path d="M16.3395 15.4905C15.876 15.3443 15.2842 14.9633 14.622 14.3003C14.0535 13.7438 13.467 13.0268 12.867 12.2453C12.723 12.4365 12.5797 12.6278 12.4357 12.8228C12.0435 13.3538 11.6422 13.89 11.2335 14.4173C12.6615 16.1498 14.1435 17.8508 16.341 18.1313V20.1563L22.0072 16.8863L16.3402 13.614V15.4905H16.3395ZM6.89399 8.95053C7.46099 9.50553 8.04749 10.2225 8.64899 11.004C8.79449 10.8075 8.94149 10.614 9.08849 10.413C9.48032 9.8809 9.87835 9.35337 10.2825 8.83053C8.75849 6.98253 7.18274 5.15028 4.73549 5.06253H2.11049V7.68753H4.73549C5.22674 7.66728 5.99699 8.05128 6.89399 8.94978V8.95053ZM16.3395 7.75578V9.65778L22.0065 6.38553L16.3395 3.11328V5.09853C14.9115 5.26353 13.7707 6.10953 12.777 7.08153C11.1292 8.71953 9.68924 10.9575 8.26799 12.7365C6.86774 14.5643 5.46299 15.6518 4.73399 15.564H2.10899V18.189H4.73399C6.37274 18.1665 7.64399 17.2395 8.73899 16.1693C10.3845 14.5313 11.826 12.294 13.2465 10.5158C14.4037 9.00303 15.5595 8.01078 16.3395 7.75578Z" fill="#C4C4C4"/>
</svg>
